PathFileType	4	(X/Y/Z)	SUBJ82_0_static_RCNL2025.trc
DataRate	CameraRate	NumFrames	NumMarkers	Units	OrigDataRate	OrigDataStartFrame	OrigNumFrames
100	100	13	25	mm	100	42	82
Frame#	Time	R_Shoulder			L_Shoulder			C7			J_Notch			R_Elbow			L_Elbow			R_Wrist			L_Wrist			R_Asis			L_Asis			Sacral			Thoracic			Sternum			R_Thigh_Lateral			R_Knee_Lateral			R_Shank_Lateral			R_Ankle_Lateral			R_Heel			R_Toe			L_Thigh_Lateral			L_Knee_Lateral			L_Shank_Lateral			L_Ankle_Lateral			L_Heel			L_Toe		
		X1	Y1	Z1	X2	Y2	Z2	X3	Y3	Z3	X4	Y4	Z4	X5	Y5	Z5	X6	Y6	Z6	X7	Y7	Z7	X8	Y8	Z8	X9	Y9	Z9	X10	Y10	Z10	X11	Y11	Z11	X12	Y12	Z12	X13	Y13	Z13	X14	Y14	Z14	X15	Y15	Z15	X16	Y16	Z16	X17	Y17	Z17	X18	Y18	Z18	X19	Y19	Z19	X20	Y20	Z20	X21	Y21	Z21	X22	Y22	Z22	X23	Y23	Z23	X24	Y24	Z24	X25	Y25	Z25
42	0.41000000	-277.240448	1454.710693	-2.941825	-252.391968	1472.011963	-392.706543	-319.298370	1526.896851	-194.972565	-187.101974	1422.021973	-194.319977	-305.623291	1186.904541	188.556396	-270.574127	1202.730957	-595.811584	-230.692497	970.577850	314.161362	-205.987381	981.884705	-712.987732	-185.503769	999.809204	-57.044994	-175.665207	1006.437805	-327.341125	-361.016907	1029.391846	-208.129425	-391.451721	1290.521240	-212.599075	-155.452469	1242.000122	-197.360901	-286.612061	574.483276	-21.470663	-299.347198	488.758240	-71.515434	-336.800568	265.684631	-11.174429	-340.802612	79.766571	-105.570282	-383.129913	46.657520	-148.211060	-204.007233	51.296097	-124.767479	-310.849945	572.988403	-372.651367	-317.873383	496.974335	-328.542297	-329.134155	265.585266	-365.937714	-334.979523	74.246910	-298.543915	-374.675568	52.470036	-246.321533	-191.920853	46.108803	-269.102783
43	0.42000000	-277.139587	1454.764160	-2.925683	-252.321274	1472.008179	-392.701233	-319.236328	1526.986450	-195.024826	-186.983734	1421.991699	-194.375793	-305.514526	1186.900635	188.600494	-270.472717	1202.619995	-595.871643	-230.554710	970.585022	314.140945	-205.838394	981.862610	-712.970032	-185.454498	999.862427	-57.075996	-175.516617	1006.424988	-327.278198	-360.932709	1029.445801	-208.199844	-391.310638	1290.493530	-212.581253	-155.430801	1242.041138	-197.380676	-286.675903	574.526306	-21.427670	-299.201324	488.798279	-71.484596	-336.805145	265.689880	-11.186426	-340.775085	79.784523	-105.576752	-383.117065	46.643497	-148.218903	-203.989029	51.294106	-124.799316	-310.864777	572.999084	-372.659637	-317.744476	496.965912	-328.606964	-329.136444	265.587006	-365.921753	-334.966797	74.269012	-298.535126	-374.546143	52.481998	-246.436020	-191.930298	46.080257	-269.034027
44	0.43000000	-276.978394	1454.743652	-2.921713	-252.264587	1471.987671	-392.648010	-319.134613	1526.951904	-194.959030	-186.962280	1422.004639	-194.324463	-305.305695	1186.905640	188.568069	-270.379761	1202.633789	-595.903381	-230.448845	970.622314	314.105911	-205.722229	981.880646	-713.006866	-185.336044	999.788940	-57.080826	-175.501068	1006.412231	-327.281860	-360.787018	1029.413696	-208.178406	-391.289459	1290.553833	-212.596466	-155.355576	1241.956665	-197.322311	-286.654327	574.599426	-21.400774	-299.210907	488.714294	-71.464798	-336.837006	265.650085	-11.165270	-340.772858	79.791740	-105.572235	-383.152863	46.689854	-148.182968	-204.006760	51.292622	-124.767632	-310.699860	573.022400	-372.644012	-317.729523	496.962585	-328.600067	-329.138519	265.556946	-365.953064	-334.967896	74.196045	-298.547729	-374.528442	52.382172	-246.464539	-191.886826	46.140419	-269.116150
45	0.44000000	-276.919312	1454.676270	-2.925500	-252.088058	1471.959595	-392.694214	-319.048645	1526.909302	-195.014771	-186.819839	1421.966919	-194.377823	-305.144562	1186.926636	188.577408	-270.274597	1202.666504	-595.928040	-230.269089	970.682129	314.154083	-205.707062	981.915558	-713.058136	-185.244049	999.760559	-57.102158	-175.414413	1006.419373	-327.341919	-360.682648	1029.453369	-208.154617	-391.236237	1290.543945	-212.531219	-155.306747	1241.885254	-197.402939	-286.521576	574.584778	-21.386976	-299.175598	488.796936	-71.508957	-336.871704	265.671051	-11.132984	-340.749146	79.764061	-105.605400	-383.107422	46.724792	-148.235474	-203.971741	51.305428	-124.712463	-310.671722	572.998230	-372.669556	-317.773682	496.931030	-328.565002	-329.046722	265.533691	-365.933716	-334.991913	74.216156	-298.466125	-374.564545	52.426670	-246.399033	-191.897247	46.111557	-269.062744
46	0.45000000	-276.802948	1454.783813	-2.913603	-252.039764	1471.991943	-392.755890	-318.868439	1526.881226	-195.002289	-186.763641	1421.991821	-194.400620	-305.115326	1186.955566	188.562744	-270.179779	1202.571289	-595.934570	-230.119217	970.694916	314.145554	-205.658028	981.958710	-713.127289	-185.261902	999.770386	-57.083485	-175.342270	1006.356018	-327.290253	-360.606812	1029.444824	-208.197586	-391.075806	1290.514160	-212.522583	-155.166901	1241.900757	-197.427765	-286.458649	574.519348	-21.399809	-299.183289	488.815857	-71.516846	-336.831909	265.660095	-11.184443	-340.731659	79.726624	-105.580559	-383.135406	46.680359	-148.210876	-203.997742	51.271984	-124.755226	-310.634338	572.988892	-372.716064	-317.671814	496.938934	-328.692108	-329.039246	265.541748	-365.943237	-334.930206	74.211494	-298.508087	-374.530151	52.411491	-246.429047	-191.907059	46.145336	-269.105530
47	0.46000000	-276.662079	1454.763184	-2.997519	-251.911057	1471.939575	-392.705170	-318.727020	1526.845947	-195.077835	-186.583954	1422.003784	-194.396606	-304.936310	1186.989380	188.549713	-270.044220	1202.535645	-595.900330	-230.004753	970.688080	314.124496	-205.593102	982.018768	-713.225891	-185.083450	999.749634	-57.099274	-175.247787	1006.371033	-327.354614	-360.523102	1029.395386	-208.256424	-391.053375	1290.584229	-212.548752	-154.955368	1241.921875	-197.428711	-286.441589	574.512634	-21.464386	-299.192017	488.823914	-71.497635	-336.822510	265.631073	-11.174292	-340.658508	79.759903	-105.547577	-383.110321	46.651474	-148.226669	-203.988495	51.276566	-124.787292	-310.580505	572.999207	-372.688812	-317.591736	496.922699	-328.698669	-329.047272	265.544983	-365.955994	-335.043457	74.213501	-298.508728	-374.548035	52.424271	-246.438950	-191.911087	46.147816	-269.092346
48	0.47000000	-276.620392	1454.753052	-3.030724	-251.804825	1471.957397	-392.823578	-318.728516	1526.839233	-195.093796	-186.571762	1421.984253	-194.357437	-304.802246	1186.977783	188.588333	-269.978882	1202.521484	-595.945312	-229.923500	970.723236	314.098648	-205.661415	982.061401	-713.332825	-185.056793	999.736755	-57.116955	-175.172455	1006.361023	-327.307556	-360.427673	1029.472168	-208.227798	-390.922333	1290.573120	-212.523651	-154.923187	1241.911865	-197.432404	-286.405640	574.511536	-21.475508	-299.193604	488.826172	-71.486549	-336.805206	265.638306	-11.177468	-340.740601	79.774582	-105.601341	-383.122589	46.664436	-148.204666	-203.993866	51.303112	-124.798180	-310.532288	572.987366	-372.664917	-317.641052	496.917206	-328.577667	-329.037262	265.525940	-365.958405	-334.944489	74.203766	-298.476685	-374.538940	52.422203	-246.412872	-191.865234	46.127724	-269.158417
49	0.48000000	-276.563751	1454.778442	-2.944516	-251.662445	1471.941528	-392.803833	-318.569916	1526.899414	-195.107086	-186.416962	1421.950073	-194.417953	-304.770569	1187.047241	188.569000	-269.861084	1202.606079	-595.935852	-229.810844	970.809906	314.156021	-205.592133	982.141052	-713.389618	-185.003372	999.731262	-57.082531	-175.097702	1006.391541	-327.373993	-360.351929	1029.476807	-208.266495	-390.776093	1290.553345	-212.498734	-154.945053	1241.897705	-197.463928	-286.398865	574.506714	-21.476990	-299.152863	488.769226	-71.494873	-336.751129	265.679993	-11.177296	-340.756042	79.772148	-105.594017	-383.087250	46.675060	-148.214569	-203.960556	51.295498	-124.719963	-310.571899	573.002625	-372.695801	-317.491333	496.961487	-328.702667	-329.033386	265.556946	-365.953430	-334.950958	74.204361	-298.419952	-374.507385	52.454338	-246.444977	-191.896454	46.140091	-269.128387
50	0.49000000	-276.424164	1454.810913	-3.043648	-251.554214	1471.934937	-392.803650	-318.548004	1526.898926	-195.109558	-186.269348	1421.954224	-194.415527	-304.509766	1187.101807	188.544144	-269.779266	1202.583374	-595.996704	-229.718658	970.862518	314.163788	-205.467720	982.143250	-713.275696	-184.895355	999.765869	-57.153584	-175.070358	1006.379761	-327.419434	-360.282990	1029.463379	-208.199600	-390.728973	1290.578491	-212.553268	-154.855545	1241.876343	-197.402252	-286.402100	574.503235	-21.466127	-299.101959	488.764343	-71.563133	-336.752594	265.651459	-11.196948	-340.748322	79.762474	-105.606544	-383.100555	46.754807	-148.232437	-203.928848	51.268898	-124.740913	-310.551453	573.118103	-372.672180	-317.503510	496.953033	-328.668365	-328.957092	265.554077	-365.997040	-334.935883	74.201744	-298.471588	-374.504791	52.455673	-246.449066	-191.881256	46.140331	-269.136475
51	0.50000000	-276.390991	1454.798462	-3.060532	-251.487137	1471.926514	-392.829742	-318.440094	1526.868774	-195.159912	-186.252914	1421.957520	-194.395035	-304.456635	1187.111694	188.529312	-269.690216	1202.619141	-596.099060	-229.640312	970.880676	314.174377	-205.354912	982.174957	-713.291687	-184.903793	999.769531	-57.120628	-175.080185	1006.338379	-327.441406	-360.281586	1029.473999	-208.193222	-390.729828	1290.590210	-212.556671	-154.750977	1241.892578	-197.456345	-286.424896	574.538757	-21.479462	-299.068817	488.737396	-71.564575	-336.725708	265.716675	-11.198671	-340.746826	79.785706	-105.590569	-383.091736	46.701550	-148.213150	-204.001205	51.278885	-124.756195	-310.506989	573.048828	-372.661621	-317.485779	497.005280	-328.675507	-328.945953	265.570770	-366.013275	-334.995117	74.239647	-298.467926	-374.544006	52.484291	-246.433884	-191.937836	46.139328	-269.134705
52	0.51000000	-276.212311	1454.780640	-3.088432	-251.419266	1471.933960	-392.847534	-318.257660	1526.824341	-195.146591	-186.199951	1421.939819	-194.462524	-304.348816	1187.150269	188.541916	-269.612518	1202.625732	-596.023376	-229.498550	970.959412	314.240311	-205.403824	982.231354	-713.369324	-184.849045	999.755981	-57.128559	-174.945465	1006.356750	-327.422546	-360.222839	1029.439697	-208.222488	-390.595734	1290.575073	-212.529373	-154.621124	1241.898926	-197.433411	-286.301147	574.497864	-21.453234	-299.067993	488.735931	-71.562759	-336.660309	265.800110	-11.251080	-340.744324	79.780289	-105.602264	-383.084961	46.690437	-148.211761	-204.000732	51.304558	-124.794357	-310.446716	573.044128	-372.706635	-317.452759	496.922424	-328.635773	-329.007141	265.609375	-365.966461	-334.982117	74.248177	-298.514435	-374.536621	52.496384	-246.441345	-191.990387	46.068745	-269.032684
53	0.52000000	-276.174896	1454.767334	-3.114357	-251.285751	1471.898560	-392.958313	-318.236450	1526.878052	-195.171936	-186.201035	1421.890015	-194.517303	-304.326782	1187.192261	188.620895	-269.524628	1202.573730	-596.108032	-229.386009	971.020813	314.223724	-205.357811	982.245972	-713.466156	-184.772995	999.718323	-57.196445	-174.929565	1006.338684	-327.376221	-360.138458	1029.450073	-208.170151	-390.510406	1290.563599	-212.575775	-154.623352	1241.870850	-197.449417	-286.204865	574.450134	-21.479591	-298.979980	488.721252	-71.501175	-336.750671	265.702942	-11.175451	-340.771729	79.809303	-105.572281	-383.154816	46.710644	-148.178040	-203.950699	51.303905	-124.738335	-310.505859	572.970520	-372.680420	-317.431030	496.935059	-328.638550	-329.022583	265.563782	-365.962677	-334.985840	74.238983	-298.483246	-374.597382	52.593807	-246.358063	-191.947693	46.110340	-269.082062
54	0.53000000	-276.110596	1454.828003	-3.124807	-251.311081	1471.885864	-392.885803	-318.207001	1526.881470	-195.229660	-186.055588	1421.839355	-194.521957	-304.285522	1187.264282	188.603989	-269.460541	1202.564819	-596.157593	-229.331886	971.028839	314.277206	-205.245781	982.249817	-713.502869	-184.744659	999.700806	-57.233639	-174.910553	1006.344177	-327.467865	-360.135498	1029.439697	-208.167175	-390.490112	1290.543457	-212.606247	-154.434601	1241.875610	-197.522430	-286.197632	574.433655	-21.525352	-298.969086	488.718719	-71.521149	-336.734833	265.720947	-11.183141	-340.757050	79.780617	-105.598351	-383.164886	46.699535	-148.176743	-203.993149	51.305035	-124.783821	-310.445251	573.026367	-372.695007	-317.465363	496.911499	-328.614746	-328.958038	265.604736	-365.949890	-334.893616	74.202988	-298.470947	-374.635651	52.513424	-246.320312	-191.864883	46.128456	-269.161194
